<svg width="392" height="374" viewBox="0 0 392 374" fill="none" xmlns="http://www.w3.org/2000/svg">
<path fill-rule="evenodd" clip-rule="evenodd" d="M202.753 3.98067C199.669 -1.32688 192.004 -1.32689 188.919 3.98066L133.672 99.0576C132.228 101.543 132.228 104.611 133.672 107.096L161.924 155.716C161.32 156.844 160.375 157.738 159.245 158.285L121.463 116.086C119.545 113.945 116.627 112.997 113.817 113.602L6.3214 136.765C0.320573 138.058 -2.04829 145.349 2.04645 149.922L75.3976 231.846C77.3148 233.987 80.2333 234.936 83.0429 234.33L135.703 222.983L135.764 223.027C136.961 223.892 137.763 225.138 138.088 226.506L87.8177 248.72C85.1888 249.881 83.3851 252.364 83.0927 255.223L71.9039 364.616C71.2793 370.722 77.4811 375.228 83.0959 372.747L183.677 328.302C186.306 327.14 188.109 324.658 188.402 321.798L193.835 268.683C195.208 268.126 196.742 268.1 198.131 268.603L203.562 321.703C203.855 324.562 205.658 327.045 208.287 328.206L308.868 372.652C314.483 375.133 320.685 370.627 320.06 364.52L308.872 255.128C308.579 252.269 306.775 249.786 304.147 248.624L254.086 226.503C254.411 225.136 255.213 223.891 256.409 223.027L256.547 222.927L308.741 234.174C311.551 234.779 314.469 233.831 316.387 231.69L389.738 149.766C393.833 145.193 391.464 137.902 385.463 136.609L277.967 113.446C275.157 112.84 272.239 113.789 270.322 115.93L232.568 158.096C231.451 157.458 230.546 156.467 230.023 155.245L258.001 107.096C259.445 104.611 259.445 101.543 258.001 99.0577L202.753 3.98067Z" fill="#9D5B8B"/>
<path fill-rule="evenodd" clip-rule="evenodd" d="M196.002 58.3862L190.228 64.1597L195.002 68.9332V174.16H197.002V68.9332L201.775 64.1597L196.002 58.3862ZM196.999 206.16H196.726L196.641 205.9L196.382 205.984L196.221 205.764L196 205.924L195.779 205.764L195.619 205.984L195.359 205.9L195.275 206.16H195.002V206.433L194.742 206.517L194.827 206.777L194.606 206.937L194.766 207.158L194.606 207.379L194.827 207.539L194.742 207.799L195.002 207.883V208.156H195.275L195.359 208.416L195.619 208.331L195.78 208.552L196 208.392L196.221 208.553L196.382 208.332L196.641 208.416L196.725 208.156H196.999V207.883L197.258 207.799L197.174 207.539L197.395 207.379L197.234 207.158L197.395 206.937L197.174 206.777L197.258 206.517L196.999 206.433V206.16ZM54.5103 161.183L58.2171 168.458L64.232 165.394L164.308 197.91L164.926 196.008L64.8501 163.491L61.7853 157.476L54.5103 161.183ZM108.553 327.516L116.617 326.239L115.561 319.571L177.412 234.441L175.794 233.266L113.943 318.396L107.276 319.452L108.553 327.516ZM283.445 327.518L284.722 319.453L278.055 318.397L216.204 233.267L214.586 234.443L276.436 319.573L275.38 326.241L283.445 327.518ZM337.491 161.186L330.216 157.48L327.151 163.495L227.075 196.011L227.693 197.914L327.769 165.397L333.784 168.462L337.491 161.186Z" fill="#601D35"/>
<path d="M181.867 173.35C186.64 160.114 205.36 160.114 210.133 173.35C212.221 179.142 217.632 183.073 223.786 183.27C237.849 183.719 243.634 201.522 232.52 210.152C227.658 213.928 225.591 220.289 227.305 226.202C231.224 239.716 216.08 250.719 204.438 242.816C199.344 239.358 192.656 239.358 187.562 242.816C175.92 250.719 160.776 239.716 164.695 226.202C166.409 220.289 164.342 213.928 159.48 210.152C148.366 201.522 154.151 183.719 168.214 183.27C174.368 183.073 179.779 179.142 181.867 173.35Z" fill="#F4F3F0"/>
<path d="M185.489 181.363C188.607 170.921 203.393 170.921 206.511 181.363C207.926 186.103 212.339 189.309 217.285 189.191C228.178 188.929 232.748 202.992 223.781 209.183C219.71 211.994 218.024 217.182 219.665 221.849C223.281 232.128 211.318 240.82 202.659 234.205C198.728 231.201 193.272 231.201 189.341 234.205C180.682 240.819 168.719 232.128 172.335 221.849C173.976 217.182 172.29 211.994 168.219 209.183C159.252 202.992 163.822 188.929 174.715 189.191C179.661 189.309 184.074 186.103 185.489 181.363Z" fill="#EFD87A"/>
</svg>
