<svg width="392" height="1180" viewBox="0 0 392 1180" fill="none" xmlns="http://www.w3.org/2000/svg">
<path fill-rule="evenodd" clip-rule="evenodd" d="M202.753 3.98066C199.669 -1.32688 192.004 -1.32689 188.919 3.98066L133.672 99.0576C132.228 101.543 132.228 104.611 133.672 107.096L161.924 155.716C161.32 156.844 160.375 157.738 159.245 158.285L121.463 116.086C119.545 113.945 116.627 112.997 113.817 113.602L6.32139 136.765C0.320568 138.058 -2.04828 145.349 2.04644 149.922L75.3976 231.846C77.3148 233.987 80.2333 234.936 83.0429 234.33L135.703 222.983L135.764 223.027C136.961 223.892 137.763 225.138 138.088 226.506L87.8177 248.72C85.1888 249.881 83.3851 252.364 83.0927 255.223L71.9039 364.616C71.2793 370.722 77.4811 375.228 83.0959 372.747L183.677 328.302C186.306 327.14 188.109 324.658 188.402 321.798L193.835 268.683C195.208 268.126 196.742 268.1 198.131 268.603L203.562 321.703C203.855 324.562 205.658 327.045 208.287 328.206L308.868 372.652C314.483 375.133 320.685 370.627 320.06 364.52L308.872 255.128C308.579 252.269 306.775 249.786 304.147 248.624L254.086 226.503C254.411 225.136 255.213 223.891 256.409 223.027L256.547 222.927L308.741 234.174C311.551 234.779 314.469 233.831 316.387 231.69L389.738 149.766C393.833 145.192 391.464 137.902 385.463 136.609L277.967 113.446C275.157 112.84 272.239 113.789 270.322 115.93L232.568 158.096C231.451 157.459 230.546 156.467 230.023 155.245L258.001 107.096C259.445 104.611 259.445 101.543 258.001 99.0576L202.753 3.98066Z" fill="#9D5B8B"/>
<path fill-rule="evenodd" clip-rule="evenodd" d="M196.001 58.3862L190.228 64.1597L195.001 68.9332V174.16H197.001V68.9332L201.775 64.1597L196.001 58.3862ZM196.998 206.16H196.725L196.641 205.9L196.381 205.984L196.221 205.764L196 205.924L195.779 205.764L195.619 205.984L195.359 205.9L195.274 206.16H195.001V206.433L194.742 206.517L194.826 206.777L194.606 206.937L194.766 207.158L194.605 207.379L194.826 207.539L194.742 207.799L195.001 207.883V208.156H195.275L195.359 208.416L195.618 208.331L195.779 208.552L196 208.392L196.221 208.553L196.381 208.332L196.641 208.416L196.725 208.156H196.998V207.883L197.258 207.799L197.173 207.539L197.394 207.379L197.234 207.158L197.394 206.937L197.173 206.777L197.257 206.517L196.998 206.433V206.16ZM54.5098 161.183L58.2166 168.458L64.2316 165.394L164.308 197.91L164.926 196.008L64.8495 163.491L61.7848 157.476L54.5098 161.183ZM108.552 327.516L116.617 326.239L115.561 319.571L177.411 234.441L175.793 233.266L113.943 318.396L107.275 319.452L108.552 327.516ZM283.444 327.518L284.722 319.453L278.054 318.397L216.203 233.267L214.585 234.443L276.436 319.573L275.38 326.241L283.444 327.518ZM337.491 161.186L330.216 157.48L327.151 163.495L227.075 196.011L227.693 197.914L327.769 165.397L333.784 168.461L337.491 161.186Z" fill="#601D35"/>
<path d="M181.867 173.35C186.64 160.114 205.36 160.114 210.133 173.35C212.221 179.142 217.632 183.073 223.786 183.27C237.849 183.719 243.634 201.522 232.52 210.152C227.658 213.928 225.591 220.289 227.305 226.202C231.224 239.716 216.08 250.719 204.438 242.816C199.344 239.358 192.656 239.358 187.562 242.816C175.92 250.719 160.776 239.716 164.695 226.202C166.409 220.289 164.342 213.928 159.48 210.152C148.366 201.522 154.151 183.719 168.214 183.27C174.368 183.073 179.779 179.142 181.867 173.35Z" fill="#F4F3F0"/>
<path d="M185.489 181.363C188.607 170.921 203.393 170.921 206.511 181.363C207.926 186.103 212.339 189.309 217.285 189.191C228.178 188.929 232.748 202.992 223.781 209.183C219.71 211.994 218.024 217.182 219.665 221.849C223.281 232.128 211.318 240.82 202.659 234.205C198.728 231.201 193.272 231.201 189.341 234.205C180.682 240.819 168.719 232.128 172.335 221.849C173.976 217.182 172.29 211.994 168.219 209.183C159.252 202.992 163.822 188.929 174.715 189.191C179.661 189.309 184.074 186.103 185.489 181.363Z" fill="#EFD87A"/>
<path d="M318.626 540.294C317.385 539.939 316.409 540.117 315.7 540.826C315.168 541.358 314.725 542.067 314.37 542.954C298.41 540.117 280.677 537.723 261.17 535.772C241.663 533.821 222.511 533.201 203.714 533.91C202.473 533.023 201.763 532.491 201.586 532.314C201.586 532.137 201.409 531.427 201.054 530.186C200.522 530.363 200.256 531.073 200.256 532.314C200.256 533.023 200.256 533.555 200.256 533.91C188.729 535.329 177.735 536.57 167.272 537.634C156.987 538.698 146.524 540.471 135.884 542.954C132.692 543.663 129.411 544.993 126.042 546.944C122.673 548.895 119.481 550.757 116.466 552.53C113.451 554.126 110.791 554.924 108.486 554.924C105.471 554.924 103.077 554.215 101.304 552.796C99.5307 551.377 97.846 549.781 96.25 548.008C94.8313 546.412 93.4127 544.993 91.994 543.752C90.5753 542.511 88.8907 541.624 86.94 541.092C86.94 539.851 86.674 538.609 86.142 537.368C85.61 535.949 84.9893 534.531 84.28 533.112C83.0387 530.629 81.9747 527.969 81.088 525.132C80.2013 522.117 80.7333 518.925 82.684 515.556C92.6147 519.989 103.343 522.029 114.87 521.674C126.397 521.319 138.189 520.61 150.248 519.546C154.149 519.014 158.051 518.571 161.952 518.216C165.853 517.861 169.755 517.595 173.656 517.418C189.971 516.531 205.842 515.911 221.27 515.556C236.698 515.024 251.417 515.024 265.426 515.556C265.958 515.556 266.313 514.847 266.49 513.428C266.667 511.655 267.199 510.857 268.086 511.034C268.795 511.034 269.505 511.034 270.214 511.034C270.923 510.857 271.633 510.679 272.342 510.502C273.761 510.147 275.179 509.881 276.598 509.704C278.017 509.527 279.435 509.615 280.854 509.97C281.741 510.147 282.805 510.945 284.046 512.364C285.287 513.783 286.795 514.847 288.568 515.556C292.647 517.152 295.839 518.305 298.144 519.014C300.449 519.723 303.287 521.319 306.656 523.802C310.025 526.285 312.597 528.501 314.37 530.452C316.143 532.403 317.562 535.683 318.626 540.294ZM308.518 767.192C304.262 768.079 300.095 768.433 296.016 768.256C291.937 767.901 287.681 767.458 283.248 766.926C278.637 766.394 273.672 766.039 268.352 765.862C263.032 765.507 257.18 765.773 250.796 766.66C249.555 768.965 248.579 772.246 247.87 776.502C247.161 780.758 247.693 784.127 249.466 786.61C247.338 787.674 245.476 789.004 243.88 790.6C242.461 792.019 240.865 793.437 239.092 794.856C235.368 794.324 231.467 794.235 227.388 794.59C223.487 794.767 219.497 795.033 215.418 795.388C212.935 795.565 210.364 795.743 207.704 795.92C205.221 796.097 202.827 796.186 200.522 796.186C195.379 796.186 190.68 795.565 186.424 794.324C182.345 793.083 179.153 790.423 176.848 786.344C177.735 786.167 178.71 785.989 179.774 785.812C181.015 785.635 182.168 785.457 183.232 785.28C182.877 782.797 182.523 780.137 182.168 777.3C181.991 774.463 181.902 772.246 181.902 770.65C178.355 770.827 174.099 771.093 169.134 771.448C164.169 771.625 159.647 772.423 155.568 773.842C155.568 781.467 155.213 788.029 154.504 793.526C153.972 798.846 153.263 803.545 152.376 807.624C164.789 806.205 177.114 805.407 189.35 805.23C201.586 804.875 214.177 803.989 227.122 802.57C229.073 802.215 230.757 801.861 232.176 801.506C233.595 800.974 234.659 799.821 235.368 798.048C239.447 799.289 243.88 800.442 248.668 801.506C253.633 802.57 257.889 803.989 261.436 805.762C264.983 807.535 266.756 810.195 266.756 813.742C262.855 815.87 257.446 817.2 250.53 817.732C243.614 818.087 235.9 818.353 227.388 818.53C218.876 818.53 210.364 819.151 201.852 820.392C202.207 822.52 202.916 824.293 203.98 825.712C205.221 827.131 206.463 828.372 207.704 829.436C213.201 828.904 217.901 828.549 221.802 828.372C225.881 828.195 230.935 828.372 236.964 828.904C237.496 828.904 237.851 828.283 238.028 827.042C238.205 825.446 238.826 824.737 239.89 824.914C246.097 826.155 252.215 827.574 258.244 829.17C264.273 830.766 269.239 833.426 273.14 837.15C273.672 837.859 273.583 838.48 272.874 839.012C272.165 839.544 271.899 840.165 272.076 840.874C267.288 842.825 261.968 843.889 256.116 844.066C250.264 844.243 244.412 844.243 238.56 844.066C234.836 844.066 231.289 844.066 227.92 844.066C224.551 844.066 221.359 844.243 218.344 844.598C222.068 848.322 226.856 851.425 232.708 853.908C238.737 856.213 245.121 858.43 251.86 860.558C258.599 862.509 264.894 864.725 270.746 867.208C274.647 868.804 277.839 870.843 280.322 873.326C282.982 875.631 285.908 878.38 289.1 881.572C289.987 882.459 290.696 884.321 291.228 887.158C291.76 889.995 292.115 892.655 292.292 895.138C289.632 897.443 286.44 899.039 282.716 899.926C279.169 900.813 275.445 901.256 271.544 901.256C267.82 901.433 264.539 901.433 261.702 901.256C260.993 901.256 260.461 901.256 260.106 901.256C254.254 897.355 248.402 892.921 242.55 887.956C236.875 882.813 232.442 877.759 229.25 872.794C227.122 873.149 224.817 872.085 222.334 869.602C219.851 867.119 217.457 864.459 215.152 861.622C213.733 860.026 212.403 858.519 211.162 857.1C209.921 855.681 208.768 854.529 207.704 853.642C206.64 853.997 206.019 854.617 205.842 855.504C205.842 856.391 205.842 857.189 205.842 857.898C206.019 859.317 205.931 860.203 205.576 860.558C205.576 861.267 205.576 861.977 205.576 862.686C205.753 863.218 205.842 863.75 205.842 864.282C206.551 872.085 206.906 879.887 206.906 887.69C207.083 895.493 205.931 902.231 203.448 907.906C201.143 913.758 196.621 917.748 189.882 919.876C187.754 919.167 184.828 917.571 181.104 915.088C177.557 912.783 173.833 909.945 169.932 906.576C166.208 903.207 162.75 899.837 159.558 896.468C156.543 893.099 154.415 890.173 153.174 887.69C154.947 887.69 157.341 888.133 160.356 889.02C163.548 889.729 166.563 890.439 169.4 891.148C171.883 891.68 174.365 891.946 176.848 891.946C179.331 891.946 181.547 891.237 183.498 889.818C185.449 888.399 186.69 886.537 187.222 884.232C187.931 881.749 188.197 879.089 188.02 876.252C187.843 873.237 187.665 869.779 187.488 865.878C187.488 861.977 187.488 858.785 187.488 856.302C183.232 856.302 179.685 857.455 176.848 859.76C174.188 862.065 171.617 864.459 169.134 866.942C165.055 870.843 160.977 874.301 156.898 877.316C152.997 880.331 149.539 883.079 146.524 885.562C143.687 887.867 140.051 890.439 135.618 893.276C131.185 896.113 126.751 898.773 122.318 901.256C117.885 903.739 114.161 905.689 111.146 907.108C109.55 906.931 108.131 906.931 106.89 907.108C105.649 907.285 104.407 907.463 103.166 907.64C102.457 907.817 101.747 907.906 101.038 907.906C100.329 908.083 99.6193 908.172 98.91 908.172C97.846 907.64 97.048 906.931 96.516 906.044C95.984 905.157 95.452 904.271 94.92 903.384C94.2107 902.143 93.4127 901.079 92.526 900.192C91.8167 899.305 90.664 898.951 89.068 899.128C89.068 899.128 90.5753 898.507 93.59 897.266C96.6047 896.025 100.329 894.429 104.762 892.478C109.195 890.35 113.629 888.045 118.062 885.562C122.673 883.079 126.485 880.685 129.5 878.38C132.16 876.252 135.352 873.769 139.076 870.932C142.8 868.095 146.347 864.903 149.716 861.356C153.263 857.632 156.1 853.642 158.228 849.386C153.617 849.741 148.386 850.539 142.534 851.78C136.859 853.021 131.451 853.642 126.308 853.642C121.875 853.642 117.973 852.755 114.604 850.982C111.235 849.031 109.284 845.573 108.752 840.608C109.816 840.253 111.146 839.899 112.742 839.544C114.338 839.012 116.111 838.923 118.062 839.278C118.949 839.101 119.303 838.48 119.126 837.416C118.949 836.352 119.215 835.731 119.924 835.554C130.209 835.199 141.115 834.667 152.642 833.958C164.346 833.071 174.543 832.007 183.232 830.766C183.055 828.993 182.966 827.397 182.966 825.978C183.143 824.382 183.498 822.963 184.03 821.722C181.193 821.545 178.267 821.633 175.252 821.988C172.237 822.343 169.223 822.697 166.208 823.052C163.548 823.407 160.888 823.761 158.228 824.116C155.568 824.471 152.908 824.648 150.248 824.648C145.815 824.648 141.559 823.939 137.48 822.52C133.579 821.101 130.121 818.441 127.106 814.54C127.815 814.185 128.17 813.742 128.17 813.21C128.17 812.678 128.081 812.146 127.904 811.614C127.372 810.55 127.372 809.663 127.904 808.954C129.145 809.309 130.741 809.486 132.692 809.486C134.82 809.486 136.327 809.663 137.214 810.018C137.391 807.003 137.303 804.077 136.948 801.24C136.593 798.225 136.15 795.033 135.618 791.664C135.263 789.181 134.909 786.61 134.554 783.95C134.199 781.113 133.933 778.187 133.756 775.172C130.032 774.463 126.485 774.64 123.116 775.704C119.747 776.768 116.555 778.009 113.54 779.428C110.703 780.492 108.043 781.467 105.56 782.354C103.077 783.241 100.595 783.507 98.112 783.152C96.6933 782.797 95.452 781.822 94.388 780.226C93.5013 778.63 91.8167 777.211 89.334 775.97C86.8513 774.729 84.28 773.576 81.62 772.512C78.96 771.271 77.4527 769.852 77.098 768.256C77.63 767.724 77.896 766.749 77.896 765.33C77.896 764.798 77.896 764.266 77.896 763.734C77.896 763.025 78.2507 762.404 78.96 761.872C87.6493 761.872 96.4273 761.517 105.294 760.808C114.161 760.099 122.939 758.591 131.628 756.286C131.273 754.513 130.653 753.005 129.766 751.764C128.879 750.523 127.904 749.37 126.84 748.306C125.421 747.065 124.18 745.646 123.116 744.05C122.052 742.277 121.609 739.971 121.786 737.134C125.687 737.666 129.766 738.641 134.022 740.06C138.455 741.479 142.357 743.429 145.726 745.912C149.095 748.217 151.312 751.143 152.376 754.69C157.696 754.69 162.75 754.513 167.538 754.158C172.326 753.803 176.937 753.183 181.37 752.296C181.725 749.459 181.37 747.242 180.306 745.646C179.419 743.873 178.355 742.365 177.114 741.124C175.873 739.883 174.809 738.553 173.922 737.134C173.035 735.538 172.592 733.499 172.592 731.016C176.493 730.661 180.838 731.016 185.626 732.08C190.591 733.144 194.67 735.272 197.862 738.464C201.231 741.479 202.384 745.735 201.32 751.232C203.093 751.941 205.487 752.296 208.502 752.296C211.517 752.119 214.531 751.853 217.546 751.498C220.029 751.321 222.334 751.232 224.462 751.232C226.59 751.055 228.363 751.143 229.782 751.498C230.491 749.547 230.846 747.774 230.846 746.178C231.023 744.405 231.201 742.365 231.378 740.06C231.378 739.351 231.378 738.641 231.378 737.932C231.378 737.045 231.378 736.159 231.378 735.272C230.314 735.095 229.516 735.183 228.984 735.538C228.452 735.715 228.009 736.07 227.654 736.602C227.299 736.957 226.945 737.311 226.59 737.666C226.235 737.843 225.615 737.932 224.728 737.932C224.551 736.159 223.841 735.361 222.6 735.538C221.536 735.715 220.472 735.981 219.408 736.336C219.231 736.336 219.142 736.336 219.142 736.336C218.965 734.563 218.787 732.612 218.61 730.484C218.61 728.356 218.699 726.583 218.876 725.164C213.733 724.277 208.413 724.011 202.916 724.366C197.596 724.721 192.187 725.164 186.69 725.696C183.321 726.228 179.863 726.671 176.316 727.026C172.769 727.203 169.311 727.292 165.942 727.292C165.942 727.647 165.942 728.267 165.942 729.154C166.119 732.523 166.119 735.627 165.942 738.464C165.765 741.301 164.612 743.341 162.484 744.582C160.179 745.114 157.962 744.671 155.834 743.252C153.883 741.656 152.287 739.617 151.046 737.134C149.982 734.651 149.627 732.346 149.982 730.218C145.194 729.686 139.874 729.952 134.022 731.016C128.17 732.08 123.471 734.119 119.924 737.134C118.86 737.134 117.973 737.045 117.264 736.868C116.555 736.691 115.934 736.425 115.402 736.07C114.693 735.893 113.895 735.715 113.008 735.538C112.121 735.183 110.969 735.272 109.55 735.804C109.55 733.853 108.841 732.08 107.422 730.484C106.181 728.888 104.762 727.292 103.166 725.696C101.393 723.745 99.708 721.795 98.112 719.844C96.6933 717.893 96.1613 715.677 96.516 713.194C97.2253 712.839 98.0233 712.662 98.91 712.662C99.7967 712.662 100.683 712.662 101.57 712.662C102.811 712.662 103.964 712.662 105.028 712.662C106.269 712.485 107.245 711.953 107.954 711.066C109.905 712.307 112.033 713.283 114.338 713.992C116.643 714.524 118.949 715.233 121.254 716.12C122.141 715.943 122.141 715.588 121.254 715.056C120.899 714.879 120.545 714.613 120.19 714.258C119.835 713.903 119.835 713.371 120.19 712.662C121.963 712.662 123.648 712.662 125.244 712.662C127.017 712.662 128.702 712.751 130.298 712.928C132.781 713.105 135.263 713.194 137.746 713.194C140.406 713.194 143.155 713.017 145.992 712.662C145.46 708.938 144.13 705.746 142.002 703.086C139.874 700.426 137.835 697.677 135.884 694.84C133.933 692.003 132.958 688.456 132.958 684.2C137.923 685.264 142.889 686.505 147.854 687.924C152.819 689.343 156.721 691.825 159.558 695.372C162.75 699.273 163.814 704.505 162.75 711.066C170.198 710.002 176.759 709.381 182.434 709.204C188.109 708.849 193.961 708.583 199.99 708.406C206.019 708.229 213.113 707.785 221.27 707.076C224.285 703.707 225.526 700.337 224.994 696.968C224.462 693.599 223.487 690.052 222.068 686.328C221.891 685.619 221.625 684.998 221.27 684.466C221.093 683.757 220.915 683.047 220.738 682.338C221.979 681.629 222.6 680.742 222.6 679.678C227.92 680.387 232.974 682.338 237.762 685.53C242.727 688.545 246.363 693.067 248.668 699.096C248.668 699.805 248.491 700.426 248.136 700.958C247.781 701.313 247.515 701.756 247.338 702.288C246.806 702.82 246.363 703.441 246.008 704.15C245.831 704.859 245.742 705.657 245.742 706.544C249.466 707.253 253.545 707.608 257.978 707.608C262.411 707.608 266.224 707.431 269.416 707.076C270.835 706.899 271.455 706.278 271.278 705.214C271.101 704.15 271.455 703.529 272.342 703.352C275.534 704.239 279.258 705.303 283.514 706.544C287.77 707.785 291.317 709.381 294.154 711.332C296.105 712.751 297.435 714.524 298.144 716.652C298.853 718.603 298.499 720.997 297.08 723.834C288.036 723.834 278.992 723.745 269.948 723.568C261.081 723.213 252.835 722.415 245.21 721.174C243.614 721.883 242.195 722.681 240.954 723.568C239.89 724.455 239.181 725.873 238.826 727.824C239.181 728.179 239.624 728.533 240.156 728.888C240.688 729.065 241.22 729.331 241.752 729.686C243.88 731.282 246.097 733.055 248.402 735.006C250.707 736.779 252.392 738.907 253.456 741.39C254.697 743.695 254.609 746.355 253.19 749.37C253.899 749.902 254.875 750.168 256.116 750.168C257.357 750.168 258.599 750.168 259.84 750.168C260.549 750.168 261.17 750.168 261.702 750.168C262.411 750.168 263.032 750.168 263.564 750.168C264.983 749.636 265.426 749.104 264.894 748.572C264.539 747.863 265.071 747.153 266.49 746.444C271.101 747.331 276.155 748.129 281.652 748.838C287.149 749.37 292.115 750.434 296.548 752.03C300.095 753.271 303.021 755.133 305.326 757.616C307.809 759.921 308.873 763.113 308.518 767.192ZM229.25 767.192C227.477 767.369 224.728 767.547 221.004 767.724C217.457 767.724 213.911 767.901 210.364 768.256C206.817 768.611 203.98 769.32 201.852 770.384C201.852 770.916 201.852 771.98 201.852 773.576C201.675 775.172 201.586 776.768 201.586 778.364C201.763 779.96 202.473 780.935 203.714 781.29C205.487 781.113 207.97 781.024 211.162 781.024C214.354 780.847 217.635 780.669 221.004 780.492C224.373 780.137 227.122 779.605 229.25 778.896V767.192ZM313.572 1118.31C306.301 1122.39 298.676 1123.72 290.696 1122.3C282.716 1120.71 275.357 1117.43 268.618 1112.46C261.879 1107.32 256.559 1101.64 252.658 1095.44C249.821 1097.92 247.87 1101.2 246.806 1105.28C245.919 1109.18 245.299 1113.44 244.944 1118.05C244.767 1122.66 244.323 1127.18 243.614 1131.61C242.905 1135.87 241.309 1139.77 238.826 1143.32C234.925 1140.66 230.137 1139.15 224.462 1138.79C218.787 1138.44 212.226 1139.06 204.778 1140.66C204.069 1143.32 204.069 1145.62 204.778 1147.57C205.487 1149.52 206.285 1151.3 207.172 1152.89C208.059 1154.49 208.502 1155.64 208.502 1156.35C211.339 1156.88 214.797 1157.5 218.876 1158.21C222.955 1158.74 227.122 1158.92 231.378 1158.74C235.634 1158.57 239.358 1157.77 242.55 1156.35C244.146 1154.93 244.855 1153.69 244.678 1152.63C244.501 1151.38 245.033 1150.14 246.274 1148.9C250.707 1149.26 255.761 1149.79 261.436 1150.5C267.111 1151.21 272.165 1152.63 276.598 1154.75C281.031 1156.7 283.514 1159.99 284.046 1164.6C282.273 1167.79 279.081 1170.27 274.47 1172.04C269.859 1173.99 264.539 1175.24 258.51 1175.77C252.481 1176.48 246.451 1176.74 240.422 1176.57C234.393 1176.57 228.984 1176.21 224.196 1175.5C223.309 1175.32 222.511 1175.15 221.802 1174.97C221.093 1174.79 220.383 1174.53 219.674 1174.17C218.255 1173.64 216.748 1173.2 215.152 1172.84C213.556 1172.49 211.605 1172.75 209.3 1173.64C205.221 1171.87 201.231 1169.38 197.33 1166.19C193.429 1163 190.503 1159.28 188.552 1155.02C186.601 1150.59 186.424 1145.8 188.02 1140.66C186.956 1140.66 185.892 1140.66 184.828 1140.66C183.941 1140.66 183.055 1140.66 182.168 1140.66C178.444 1140.66 175.341 1140.92 172.858 1141.45C170.375 1141.81 167.804 1143.32 165.144 1145.98C160.711 1144.73 157.164 1142.7 154.504 1139.86C152.021 1136.84 149.716 1133.65 147.588 1130.28C149.007 1127.62 149.982 1124.34 150.514 1120.44C151.046 1116.54 151.223 1112.64 151.046 1108.74C151.046 1104.83 150.78 1101.55 150.248 1098.89C145.105 1104.92 139.608 1110.6 133.756 1115.92C127.904 1121.24 121.431 1126.03 114.338 1130.28C113.806 1130.64 113.629 1131.79 113.806 1133.74C113.983 1134.63 114.072 1135.51 114.072 1136.4C114.072 1137.29 113.806 1138.08 113.274 1138.79C113.097 1138.97 112.919 1139.15 112.742 1139.33C112.742 1139.33 112.653 1139.41 112.476 1139.59C112.299 1139.06 112.299 1139.24 112.476 1140.12C112.476 1140.83 112.476 1141.28 112.476 1141.45C112.476 1142.34 111.589 1144.47 109.816 1147.84C108.22 1151.21 106.269 1154.93 103.964 1159.01C101.659 1162.91 99.442 1166.46 97.314 1169.65C95.186 1172.84 93.5013 1174.79 92.26 1175.5C89.9547 1176.92 87.2947 1177.63 84.28 1177.63C81.2653 1177.81 78.0733 1177.72 74.704 1177.36C74.8813 1175.41 76.034 1173.11 78.162 1170.45C80.4673 1167.97 82.684 1166.01 84.812 1164.6C89.9547 1152.01 95.0973 1139.06 100.24 1125.76C105.383 1112.46 108.841 1098.01 110.614 1082.4C110.614 1081.87 110.614 1081.34 110.614 1080.81C110.791 1080.1 110.969 1079.39 111.146 1078.68C111.501 1074.24 111.944 1068.92 112.476 1062.72C113.185 1056.51 113.451 1050.39 113.274 1044.36C113.097 1038.33 112.21 1033.46 110.614 1029.73C110.791 1027.96 110.703 1026.45 110.348 1025.21C110.171 1023.97 109.905 1022.73 109.55 1021.49C107.067 1019.01 104.762 1016.35 102.634 1013.51C100.506 1010.49 98.2007 1007.66 95.718 1005C96.4273 1004.11 96.6933 1003.31 96.516 1002.6C96.3387 1001.89 96.0727 1001.18 95.718 1000.47C95.5407 999.765 95.452 999.233 95.452 998.878C95.452 998.346 96.1613 997.903 97.58 997.548C95.452 995.952 94.122 994.356 93.59 992.76C93.058 990.987 92.8807 988.593 93.058 985.578C102.102 986.465 111.589 986.642 121.52 986.11C131.451 985.578 141.47 984.869 151.578 983.982C157.075 983.627 162.484 983.273 167.804 982.918C173.124 982.386 178.355 982.031 183.498 981.854C185.271 975.825 184.828 971.48 182.168 968.82C179.508 966.16 176.405 963.766 172.858 961.638C170.375 960.219 167.981 958.712 165.676 957.116C163.548 955.52 162.129 953.303 161.42 950.466C162.307 951.175 163.548 951.353 165.144 950.998C166.74 950.466 168.425 949.934 170.198 949.402C171.617 948.87 172.947 948.427 174.188 948.072C175.607 947.717 176.848 947.629 177.912 947.806C183.587 947.451 187.665 947.717 190.148 948.604C192.808 949.491 195.823 950.998 199.192 953.126C199.901 955.254 200.611 956.85 201.32 957.914C202.207 958.978 203.359 960.485 204.778 962.436C203.891 965.273 202.916 968.199 201.852 971.214C200.965 974.051 200.079 976.977 199.192 979.992C201.852 979.815 204.601 979.815 207.438 979.992C210.453 979.992 213.556 979.992 216.748 979.992C224.373 980.347 231.821 980.347 239.092 979.992C246.363 979.637 251.86 977.775 255.584 974.406C257.18 975.115 258.953 975.736 260.904 976.268C262.855 976.8 264.894 977.332 267.022 977.864C270.391 978.573 273.672 979.549 276.864 980.79C280.056 981.854 282.539 983.45 284.312 985.578C286.085 987.706 286.617 990.721 285.908 994.622C280.233 994.622 274.559 994.622 268.884 994.622C263.387 994.622 257.889 994.622 252.392 994.622C241.22 994.622 230.314 994.711 219.674 994.888C209.211 994.888 199.281 995.42 189.882 996.484C193.429 997.371 196.532 999.144 199.192 1001.8C202.029 1004.29 203.625 1007.21 203.98 1010.58C204.335 1013.95 202.739 1017.32 199.192 1020.69C200.611 1020.69 202.029 1020.69 203.448 1020.69C204.867 1020.69 206.285 1020.78 207.704 1020.96C211.96 1020.96 216.127 1020.96 220.206 1020.96C224.462 1020.96 228.541 1020.51 232.442 1019.63C233.506 1019.45 234.393 1019.18 235.102 1018.83C235.989 1018.47 236.787 1018.12 237.496 1017.76C238.56 1017.23 239.624 1016.79 240.688 1016.43C241.929 1016.08 243.171 1015.9 244.412 1015.9C251.151 1016.26 257.357 1018.3 263.032 1022.02C268.707 1025.57 272.963 1029.73 275.8 1034.52C271.721 1035.94 267.288 1036.65 262.5 1036.65C257.889 1036.65 253.101 1036.56 248.136 1036.38C244.589 1036.21 240.954 1036.03 237.23 1035.85C233.506 1035.67 229.782 1035.85 226.058 1036.38C229.25 1040.64 232.797 1044.81 236.698 1048.89C240.599 1052.79 245.033 1055.36 249.998 1056.6C249.998 1057.31 250.175 1057.93 250.53 1058.46C250.707 1058.99 250.53 1059.61 249.998 1060.32C253.19 1060.68 255.761 1061.65 257.712 1063.25C259.663 1064.85 261.613 1066.53 263.564 1068.3C265.515 1069.9 268.086 1070.88 271.278 1071.23C272.519 1074.24 274.381 1076.55 276.864 1078.15C279.524 1079.74 282.361 1081.07 285.376 1082.14C288.391 1083.2 291.051 1084.53 293.356 1086.13C297.257 1088.79 300.449 1091.98 302.932 1095.7C305.415 1099.43 308.341 1102.71 311.71 1105.54C312.065 1107.85 312.331 1109.45 312.508 1110.33C312.863 1111.22 313.129 1112.11 313.306 1112.99C313.483 1113.88 313.572 1115.65 313.572 1118.31ZM172.326 1039.84C166.829 1042.32 161.686 1043.21 156.898 1042.5C152.11 1041.62 147.677 1039.93 143.598 1037.45C139.519 1034.79 135.795 1032.04 132.426 1029.2C132.249 1029.2 132.071 1029.11 131.894 1028.94C131.894 1037.8 131.451 1047.2 130.564 1057.13C129.677 1066.89 128.525 1076.55 127.106 1086.13C125.687 1095.52 124.18 1104.13 122.584 1111.93C128.436 1107.67 133.047 1103.06 136.416 1098.1C139.963 1092.95 143.332 1086.84 146.524 1079.74C146.524 1078.15 145.903 1077.08 144.662 1076.55C143.598 1075.84 142.977 1074.69 142.8 1073.09C148.652 1072.91 153.617 1071.14 157.696 1067.77C161.952 1064.4 165.321 1060.24 167.804 1055.27C170.287 1050.13 171.794 1044.98 172.326 1039.84ZM183.498 1014.04C181.015 1012.44 178.799 1010.4 176.848 1007.92C174.897 1005.44 174.011 1002.6 174.188 999.41C164.435 1000.3 155.391 1001.09 147.056 1001.8C138.721 1002.34 131.185 1004.91 124.446 1009.52C126.219 1012.53 127.727 1015.28 128.968 1017.76C130.387 1020.25 131.362 1022.73 131.894 1025.21C139.165 1025.21 147.233 1024.95 156.1 1024.41C164.967 1023.7 173.479 1023.08 181.636 1022.55C181.636 1020.78 181.813 1019.27 182.168 1018.03C182.7 1016.61 183.143 1015.28 183.498 1014.04ZM226.058 1080.54C222.689 1078.77 219.231 1077.97 215.684 1078.15C212.315 1078.15 209.566 1079.39 207.438 1081.87C205.487 1084.35 204.867 1088.25 205.576 1093.57C207.704 1096.23 210.364 1098.36 213.556 1099.96C216.925 1101.38 219.231 1103.86 220.472 1107.41C217.28 1107.05 214.443 1107.14 211.96 1107.67C209.655 1108.2 207.527 1109 205.576 1110.07C205.221 1112.9 204.778 1115.65 204.246 1118.31C203.891 1120.97 203.714 1123.81 203.714 1126.82C205.31 1127 206.817 1127 208.236 1126.82C209.655 1126.65 211.073 1126.47 212.492 1126.29C214.088 1126.11 215.595 1125.94 217.014 1125.76C218.61 1125.58 220.383 1125.58 222.334 1125.76C224.107 1122.04 225.349 1117.43 226.058 1111.93C226.767 1106.43 227.122 1100.84 227.122 1095.17C227.122 1089.32 226.767 1084.44 226.058 1080.54ZM229.516 1062.19C228.807 1058.64 227.477 1055.71 225.526 1053.41C223.753 1050.93 221.891 1048.53 219.94 1046.23C217.989 1043.92 216.305 1041.26 214.886 1038.25C213.113 1037.89 211.339 1037.71 209.566 1037.71C207.97 1037.71 206.285 1037.8 204.512 1037.98C202.916 1038.16 201.32 1038.33 199.724 1038.51C198.128 1038.51 196.443 1038.42 194.67 1038.25C194.138 1039.66 193.429 1040.91 192.542 1041.97C191.655 1043.03 191.123 1044.54 190.946 1046.49C191.478 1046.85 192.365 1047.29 193.606 1047.82C197.153 1049.77 200.345 1052.08 203.182 1054.74C206.197 1057.22 207.615 1061.21 207.438 1066.71C211.517 1066.35 214.62 1066.09 216.748 1065.91C218.876 1065.56 220.827 1065.11 222.6 1064.58C224.551 1063.87 226.856 1063.07 229.516 1062.19ZM190.946 1097.3C191.301 1095.52 191.301 1093.93 190.946 1092.51C190.591 1091.09 190.237 1089.67 189.882 1088.25C189.527 1087.19 189.173 1086.21 188.818 1085.33C188.641 1084.26 188.729 1083.29 189.084 1082.4C186.424 1081.52 183.941 1081.25 181.636 1081.6C179.331 1081.96 176.848 1082.49 174.188 1083.2C172.947 1083.55 171.617 1083.91 170.198 1084.26C168.957 1084.62 167.538 1084.88 165.942 1085.06C166.474 1085.95 166.74 1086.92 166.74 1087.99C166.74 1089.05 166.651 1090.2 166.474 1091.45C166.297 1092.51 166.208 1093.75 166.208 1095.17C166.208 1096.59 166.474 1098.18 167.006 1099.96C170.907 1099.78 175.252 1099.34 180.04 1098.63C185.005 1097.92 188.641 1097.48 190.946 1097.3ZM189.084 1129.48C188.907 1127.89 188.818 1126.38 188.818 1124.96C188.995 1123.37 189.084 1121.86 189.084 1120.44C189.261 1118.31 189.35 1116.36 189.35 1114.59C189.35 1112.81 188.907 1111.31 188.02 1110.07C185.36 1110.78 182.079 1111.4 178.178 1111.93C174.277 1112.46 170.819 1112.19 167.804 1111.13C167.449 1116.8 167.449 1122.57 167.804 1128.42C169.755 1129.13 171.883 1129.48 174.188 1129.48C176.671 1129.48 178.976 1129.4 181.104 1129.22C182.877 1129.04 184.473 1128.95 185.892 1128.95C187.311 1128.95 188.375 1129.13 189.084 1129.48ZM188.02 1067.77C188.552 1062.1 186.779 1058.37 182.7 1056.6C182.7 1058.73 182.079 1060.32 180.838 1061.39C179.774 1062.27 178.621 1063.16 177.38 1064.05C176.139 1064.93 175.429 1066.44 175.252 1068.57C176.493 1069.1 177.735 1069.37 178.976 1069.37C180.217 1069.19 181.547 1068.92 182.966 1068.57C183.853 1068.39 184.651 1068.22 185.36 1068.04C186.247 1067.86 187.133 1067.77 188.02 1067.77Z" fill="#9D5B8B"/>
</svg>
