<svg width="1250" height="374" viewBox="0 0 1250 374" fill="none" xmlns="http://www.w3.org/2000/svg">
<path fill-rule="evenodd" clip-rule="evenodd" d="M202.753 3.98067C199.669 -1.32688 192.004 -1.32689 188.919 3.98066L133.672 99.0576C132.228 101.543 132.228 104.611 133.672 107.096L161.924 155.716C161.32 156.844 160.375 157.738 159.245 158.285L121.463 116.086C119.545 113.945 116.627 112.997 113.817 113.602L6.3214 136.765C0.320573 138.058 -2.04829 145.349 2.04645 149.922L75.3976 231.846C77.3148 233.987 80.2333 234.936 83.0429 234.33L135.703 222.983L135.764 223.027C136.961 223.892 137.763 225.138 138.088 226.506L87.8177 248.72C85.1888 249.881 83.3851 252.364 83.0927 255.223L71.9039 364.616C71.2793 370.722 77.4811 375.228 83.0959 372.747L183.677 328.302C186.306 327.14 188.109 324.658 188.402 321.798L193.835 268.683C195.208 268.126 196.742 268.1 198.131 268.603L203.562 321.703C203.855 324.562 205.658 327.045 208.287 328.206L308.868 372.652C314.483 375.133 320.685 370.627 320.06 364.52L308.872 255.128C308.579 252.269 306.775 249.786 304.147 248.624L254.086 226.503C254.411 225.136 255.213 223.891 256.409 223.027L256.547 222.927L308.741 234.174C311.551 234.779 314.469 233.831 316.387 231.69L389.738 149.766C393.833 145.193 391.464 137.902 385.463 136.609L277.967 113.446C275.157 112.84 272.239 113.789 270.322 115.93L232.568 158.096C231.451 157.459 230.546 156.467 230.023 155.245L258.001 107.096C259.445 104.611 259.445 101.543 258.001 99.0577L202.753 3.98067Z" fill="#9D5B8B"/>
<path fill-rule="evenodd" clip-rule="evenodd" d="M196.002 58.3862L190.228 64.1597L195.002 68.9332V174.16H197.002V68.9332L201.775 64.1597L196.002 58.3862ZM196.998 206.16H196.725L196.641 205.9L196.381 205.984L196.221 205.764L196 205.924L195.779 205.764L195.619 205.984L195.359 205.9L195.274 206.16H195.002V206.433L194.742 206.517L194.826 206.777L194.606 206.937L194.766 207.158L194.605 207.379L194.826 207.539L194.742 207.799L195.002 207.883V208.156H195.275L195.359 208.416L195.619 208.331L195.779 208.552L196 208.392L196.221 208.553L196.381 208.332L196.641 208.416L196.725 208.156H196.998V207.883L197.258 207.799L197.173 207.539L197.394 207.379L197.234 207.158L197.394 206.937L197.173 206.777L197.257 206.517L196.998 206.433V206.16ZM54.5098 161.183L58.2166 168.458L64.2316 165.394L164.308 197.91L164.926 196.008L64.8496 163.491L61.7848 157.476L54.5098 161.183ZM108.552 327.516L116.617 326.239L115.561 319.571L177.411 234.441L175.793 233.266L113.943 318.396L107.275 319.452L108.552 327.516ZM283.444 327.518L284.722 319.453L278.054 318.397L216.203 233.267L214.585 234.443L276.436 319.573L275.38 326.241L283.444 327.518ZM337.491 161.186L330.216 157.48L327.151 163.495L227.075 196.011L227.693 197.914L327.769 165.397L333.784 168.461L337.491 161.186Z" fill="#601D35"/>
<path d="M181.867 173.35C186.64 160.114 205.36 160.114 210.133 173.35C212.221 179.142 217.632 183.073 223.786 183.27C237.849 183.719 243.634 201.522 232.52 210.152C227.658 213.928 225.591 220.289 227.305 226.202C231.224 239.716 216.08 250.719 204.438 242.816C199.344 239.358 192.656 239.358 187.562 242.816C175.92 250.719 160.776 239.716 164.695 226.202C166.409 220.289 164.342 213.928 159.48 210.152C148.366 201.522 154.151 183.719 168.214 183.27C174.368 183.073 179.779 179.142 181.867 173.35Z" fill="#F4F3F0"/>
<path d="M185.489 181.363C188.607 170.921 203.393 170.921 206.511 181.363C207.926 186.103 212.339 189.309 217.285 189.191C228.178 188.929 232.748 202.992 223.781 209.183C219.71 211.994 218.024 217.182 219.665 221.849C223.281 232.128 211.318 240.82 202.659 234.205C198.728 231.201 193.272 231.201 189.341 234.205C180.682 240.819 168.719 232.128 172.335 221.849C173.976 217.182 172.29 211.994 168.219 209.183C159.252 202.992 163.822 188.929 174.715 189.191C179.661 189.309 184.074 186.103 185.489 181.363Z" fill="#EFD87A"/>
<path d="M707.626 219.294C706.385 218.939 705.409 219.117 704.7 219.826C704.168 220.358 703.725 221.067 703.37 221.954C687.41 219.117 669.677 216.723 650.17 214.772C630.663 212.821 611.511 212.201 592.714 212.91C591.473 212.023 590.763 211.491 590.586 211.314C590.586 211.137 590.409 210.427 590.054 209.186C589.522 209.363 589.256 210.073 589.256 211.314C589.256 212.023 589.256 212.555 589.256 212.91C577.729 214.329 566.735 215.57 556.272 216.634C545.987 217.698 535.524 219.471 524.884 221.954C521.692 222.663 518.411 223.993 515.042 225.944C511.673 227.895 508.481 229.757 505.466 231.53C502.451 233.126 499.791 233.924 497.486 233.924C494.471 233.924 492.077 233.215 490.304 231.796C488.531 230.377 486.846 228.781 485.25 227.008C483.831 225.412 482.413 223.993 480.994 222.752C479.575 221.511 477.891 220.624 475.94 220.092C475.94 218.851 475.674 217.609 475.142 216.368C474.61 214.949 473.989 213.531 473.28 212.112C472.039 209.629 470.975 206.969 470.088 204.132C469.201 201.117 469.733 197.925 471.684 194.556C481.615 198.989 492.343 201.029 503.87 200.674C515.397 200.319 527.189 199.61 539.248 198.546C543.149 198.014 547.051 197.571 550.952 197.216C554.853 196.861 558.755 196.595 562.656 196.418C578.971 195.531 594.842 194.911 610.27 194.556C625.698 194.024 640.417 194.024 654.426 194.556C654.958 194.556 655.313 193.847 655.49 192.428C655.667 190.655 656.199 189.857 657.086 190.034C657.795 190.034 658.505 190.034 659.214 190.034C659.923 189.857 660.633 189.679 661.342 189.502C662.761 189.147 664.179 188.881 665.598 188.704C667.017 188.527 668.435 188.615 669.854 188.97C670.741 189.147 671.805 189.945 673.046 191.364C674.287 192.783 675.795 193.847 677.568 194.556C681.647 196.152 684.839 197.305 687.144 198.014C689.449 198.723 692.287 200.319 695.656 202.802C699.025 205.285 701.597 207.501 703.37 209.452C705.143 211.403 706.562 214.683 707.626 219.294ZM963.518 180.192C959.262 181.079 955.095 181.433 951.016 181.256C946.937 180.901 942.681 180.458 938.248 179.926C933.637 179.394 928.672 179.039 923.352 178.862C918.032 178.507 912.18 178.773 905.796 179.66C904.555 181.965 903.579 185.246 902.87 189.502C902.161 193.758 902.693 197.127 904.466 199.61C902.338 200.674 900.476 202.004 898.88 203.6C897.461 205.019 895.865 206.437 894.092 207.856C890.368 207.324 886.467 207.235 882.388 207.59C878.487 207.767 874.497 208.033 870.418 208.388C867.935 208.565 865.364 208.743 862.704 208.92C860.221 209.097 857.827 209.186 855.522 209.186C850.379 209.186 845.68 208.565 841.424 207.324C837.345 206.083 834.153 203.423 831.848 199.344C832.735 199.167 833.71 198.989 834.774 198.812C836.015 198.635 837.168 198.457 838.232 198.28C837.877 195.797 837.523 193.137 837.168 190.3C836.991 187.463 836.902 185.246 836.902 183.65C833.355 183.827 829.099 184.093 824.134 184.448C819.169 184.625 814.647 185.423 810.568 186.842C810.568 194.467 810.213 201.029 809.504 206.526C808.972 211.846 808.263 216.545 807.376 220.624C819.789 219.205 832.114 218.407 844.35 218.23C856.586 217.875 869.177 216.989 882.122 215.57C884.073 215.215 885.757 214.861 887.176 214.506C888.595 213.974 889.659 212.821 890.368 211.048C894.447 212.289 898.88 213.442 903.668 214.506C908.633 215.57 912.889 216.989 916.436 218.762C919.983 220.535 921.756 223.195 921.756 226.742C917.855 228.87 912.446 230.2 905.53 230.732C898.614 231.087 890.9 231.353 882.388 231.53C873.876 231.53 865.364 232.151 856.852 233.392C857.207 235.52 857.916 237.293 858.98 238.712C860.221 240.131 861.463 241.372 862.704 242.436C868.201 241.904 872.901 241.549 876.802 241.372C880.881 241.195 885.935 241.372 891.964 241.904C892.496 241.904 892.851 241.283 893.028 240.042C893.205 238.446 893.826 237.737 894.89 237.914C901.097 239.155 907.215 240.574 913.244 242.17C919.273 243.766 924.239 246.426 928.14 250.15C928.672 250.859 928.583 251.48 927.874 252.012C927.165 252.544 926.899 253.165 927.076 253.874C922.288 255.825 916.968 256.889 911.116 257.066C905.264 257.243 899.412 257.243 893.56 257.066C889.836 257.066 886.289 257.066 882.92 257.066C879.551 257.066 876.359 257.243 873.344 257.598C877.068 261.322 881.856 264.425 887.708 266.908C893.737 269.213 900.121 271.43 906.86 273.558C913.599 275.509 919.894 277.725 925.746 280.208C929.647 281.804 932.839 283.843 935.322 286.326C937.982 288.631 940.908 291.38 944.1 294.572C944.987 295.459 945.696 297.321 946.228 300.158C946.76 302.995 947.115 305.655 947.292 308.138C944.632 310.443 941.44 312.039 937.716 312.926C934.169 313.813 930.445 314.256 926.544 314.256C922.82 314.433 919.539 314.433 916.702 314.256C915.993 314.256 915.461 314.256 915.106 314.256C909.254 310.355 903.402 305.921 897.55 300.956C891.875 295.813 887.442 290.759 884.25 285.794C882.122 286.149 879.817 285.085 877.334 282.602C874.851 280.119 872.457 277.459 870.152 274.622C868.733 273.026 867.403 271.519 866.162 270.1C864.921 268.681 863.768 267.529 862.704 266.642C861.64 266.997 861.019 267.617 860.842 268.504C860.842 269.391 860.842 270.189 860.842 270.898C861.019 272.317 860.931 273.203 860.576 273.558C860.576 274.267 860.576 274.977 860.576 275.686C860.753 276.218 860.842 276.75 860.842 277.282C861.551 285.085 861.906 292.887 861.906 300.69C862.083 308.493 860.931 315.231 858.448 320.906C856.143 326.758 851.621 330.748 844.882 332.876C842.754 332.167 839.828 330.571 836.104 328.088C832.557 325.783 828.833 322.945 824.932 319.576C821.208 316.207 817.75 312.837 814.558 309.468C811.543 306.099 809.415 303.173 808.174 300.69C809.947 300.69 812.341 301.133 815.356 302.02C818.548 302.729 821.563 303.439 824.4 304.148C826.883 304.68 829.365 304.946 831.848 304.946C834.331 304.946 836.547 304.237 838.498 302.818C840.449 301.399 841.69 299.537 842.222 297.232C842.931 294.749 843.197 292.089 843.02 289.252C842.843 286.237 842.665 282.779 842.488 278.878C842.488 274.977 842.488 271.785 842.488 269.302C838.232 269.302 834.685 270.455 831.848 272.76C829.188 275.065 826.617 277.459 824.134 279.942C820.055 283.843 815.977 287.301 811.898 290.316C807.997 293.331 804.539 296.079 801.524 298.562C798.687 300.867 795.051 303.439 790.618 306.276C786.185 309.113 781.751 311.773 777.318 314.256C772.885 316.739 769.161 318.689 766.146 320.108C764.55 319.931 763.131 319.931 761.89 320.108C760.649 320.285 759.407 320.463 758.166 320.64C757.457 320.817 756.747 320.906 756.038 320.906C755.329 321.083 754.619 321.172 753.91 321.172C752.846 320.64 752.048 319.931 751.516 319.044C750.984 318.157 750.452 317.271 749.92 316.384C749.211 315.143 748.413 314.079 747.526 313.192C746.817 312.305 745.664 311.951 744.068 312.128C744.068 312.128 745.575 311.507 748.59 310.266C751.605 309.025 755.329 307.429 759.762 305.478C764.195 303.35 768.629 301.045 773.062 298.562C777.673 296.079 781.485 293.685 784.5 291.38C787.16 289.252 790.352 286.769 794.076 283.932C797.8 281.095 801.347 277.903 804.716 274.356C808.263 270.632 811.1 266.642 813.228 262.386C808.617 262.741 803.386 263.539 797.534 264.78C791.859 266.021 786.451 266.642 781.308 266.642C776.875 266.642 772.973 265.755 769.604 263.982C766.235 262.031 764.284 258.573 763.752 253.608C764.816 253.253 766.146 252.899 767.742 252.544C769.338 252.012 771.111 251.923 773.062 252.278C773.949 252.101 774.303 251.48 774.126 250.416C773.949 249.352 774.215 248.731 774.924 248.554C785.209 248.199 796.115 247.667 807.642 246.958C819.346 246.071 829.543 245.007 838.232 243.766C838.055 241.993 837.966 240.397 837.966 238.978C838.143 237.382 838.498 235.963 839.03 234.722C836.193 234.545 833.267 234.633 830.252 234.988C827.237 235.343 824.223 235.697 821.208 236.052C818.548 236.407 815.888 236.761 813.228 237.116C810.568 237.471 807.908 237.648 805.248 237.648C800.815 237.648 796.559 236.939 792.48 235.52C788.579 234.101 785.121 231.441 782.106 227.54C782.815 227.185 783.17 226.742 783.17 226.21C783.17 225.678 783.081 225.146 782.904 224.614C782.372 223.55 782.372 222.663 782.904 221.954C784.145 222.309 785.741 222.486 787.692 222.486C789.82 222.486 791.327 222.663 792.214 223.018C792.391 220.003 792.303 217.077 791.948 214.24C791.593 211.225 791.15 208.033 790.618 204.664C790.263 202.181 789.909 199.61 789.554 196.95C789.199 194.113 788.933 191.187 788.756 188.172C785.032 187.463 781.485 187.64 778.116 188.704C774.747 189.768 771.555 191.009 768.54 192.428C765.703 193.492 763.043 194.467 760.56 195.354C758.077 196.241 755.595 196.507 753.112 196.152C751.693 195.797 750.452 194.822 749.388 193.226C748.501 191.63 746.817 190.211 744.334 188.97C741.851 187.729 739.28 186.576 736.62 185.512C733.96 184.271 732.453 182.852 732.098 181.256C732.63 180.724 732.896 179.749 732.896 178.33C732.896 177.798 732.896 177.266 732.896 176.734C732.896 176.025 733.251 175.404 733.96 174.872C742.649 174.872 751.427 174.517 760.294 173.808C769.161 173.099 777.939 171.591 786.628 169.286C786.273 167.513 785.653 166.005 784.766 164.764C783.879 163.523 782.904 162.37 781.84 161.306C780.421 160.065 779.18 158.646 778.116 157.05C777.052 155.277 776.609 152.971 776.786 150.134C780.687 150.666 784.766 151.641 789.022 153.06C793.455 154.479 797.357 156.429 800.726 158.912C804.095 161.217 806.312 164.143 807.376 167.69C812.696 167.69 817.75 167.513 822.538 167.158C827.326 166.803 831.937 166.183 836.37 165.296C836.725 162.459 836.37 160.242 835.306 158.646C834.419 156.873 833.355 155.365 832.114 154.124C830.873 152.883 829.809 151.553 828.922 150.134C828.035 148.538 827.592 146.499 827.592 144.016C831.493 143.661 835.838 144.016 840.626 145.08C845.591 146.144 849.67 148.272 852.862 151.464C856.231 154.479 857.384 158.735 856.32 164.232C858.093 164.941 860.487 165.296 863.502 165.296C866.517 165.119 869.531 164.853 872.546 164.498C875.029 164.321 877.334 164.232 879.462 164.232C881.59 164.055 883.363 164.143 884.782 164.498C885.491 162.547 885.846 160.774 885.846 159.178C886.023 157.405 886.201 155.365 886.378 153.06C886.378 152.351 886.378 151.641 886.378 150.932C886.378 150.045 886.378 149.159 886.378 148.272C885.314 148.095 884.516 148.183 883.984 148.538C883.452 148.715 883.009 149.07 882.654 149.602C882.299 149.957 881.945 150.311 881.59 150.666C881.235 150.843 880.615 150.932 879.728 150.932C879.551 149.159 878.841 148.361 877.6 148.538C876.536 148.715 875.472 148.981 874.408 149.336C874.231 149.336 874.142 149.336 874.142 149.336C873.965 147.563 873.787 145.612 873.61 143.484C873.61 141.356 873.699 139.583 873.876 138.164C868.733 137.277 863.413 137.011 857.916 137.366C852.596 137.721 847.187 138.164 841.69 138.696C838.321 139.228 834.863 139.671 831.316 140.026C827.769 140.203 824.311 140.292 820.942 140.292C820.942 140.647 820.942 141.267 820.942 142.154C821.119 145.523 821.119 148.627 820.942 151.464C820.765 154.301 819.612 156.341 817.484 157.582C815.179 158.114 812.962 157.671 810.834 156.252C808.883 154.656 807.287 152.617 806.046 150.134C804.982 147.651 804.627 145.346 804.982 143.218C800.194 142.686 794.874 142.952 789.022 144.016C783.17 145.08 778.471 147.119 774.924 150.134C773.86 150.134 772.973 150.045 772.264 149.868C771.555 149.691 770.934 149.425 770.402 149.07C769.693 148.893 768.895 148.715 768.008 148.538C767.121 148.183 765.969 148.272 764.55 148.804C764.55 146.853 763.841 145.08 762.422 143.484C761.181 141.888 759.762 140.292 758.166 138.696C756.393 136.745 754.708 134.795 753.112 132.844C751.693 130.893 751.161 128.677 751.516 126.194C752.225 125.839 753.023 125.662 753.91 125.662C754.797 125.662 755.683 125.662 756.57 125.662C757.811 125.662 758.964 125.662 760.028 125.662C761.269 125.485 762.245 124.953 762.954 124.066C764.905 125.307 767.033 126.283 769.338 126.992C771.643 127.524 773.949 128.233 776.254 129.12C777.141 128.943 777.141 128.588 776.254 128.056C775.899 127.879 775.545 127.613 775.19 127.258C774.835 126.903 774.835 126.371 775.19 125.662C776.963 125.662 778.648 125.662 780.244 125.662C782.017 125.662 783.702 125.751 785.298 125.928C787.781 126.105 790.263 126.194 792.746 126.194C795.406 126.194 798.155 126.017 800.992 125.662C800.46 121.938 799.13 118.746 797.002 116.086C794.874 113.426 792.835 110.677 790.884 107.84C788.933 105.003 787.958 101.456 787.958 97.2C792.923 98.264 797.889 99.5053 802.854 100.924C807.819 102.343 811.721 104.825 814.558 108.372C817.75 112.273 818.814 117.505 817.75 124.066C825.198 123.002 831.759 122.381 837.434 122.204C843.109 121.849 848.961 121.583 854.99 121.406C861.019 121.229 868.113 120.785 876.27 120.076C879.285 116.707 880.526 113.337 879.994 109.968C879.462 106.599 878.487 103.052 877.068 99.328C876.891 98.6187 876.625 97.998 876.27 97.466C876.093 96.7567 875.915 96.0473 875.738 95.338C876.979 94.6287 877.6 93.742 877.6 92.678C882.92 93.3873 887.974 95.338 892.762 98.53C897.727 101.545 901.363 106.067 903.668 112.096C903.668 112.805 903.491 113.426 903.136 113.958C902.781 114.313 902.515 114.756 902.338 115.288C901.806 115.82 901.363 116.441 901.008 117.15C900.831 117.859 900.742 118.657 900.742 119.544C904.466 120.253 908.545 120.608 912.978 120.608C917.411 120.608 921.224 120.431 924.416 120.076C925.835 119.899 926.455 119.278 926.278 118.214C926.101 117.15 926.455 116.529 927.342 116.352C930.534 117.239 934.258 118.303 938.514 119.544C942.77 120.785 946.317 122.381 949.154 124.332C951.105 125.751 952.435 127.524 953.144 129.652C953.853 131.603 953.499 133.997 952.08 136.834C943.036 136.834 933.992 136.745 924.948 136.568C916.081 136.213 907.835 135.415 900.21 134.174C898.614 134.883 897.195 135.681 895.954 136.568C894.89 137.455 894.181 138.873 893.826 140.824C894.181 141.179 894.624 141.533 895.156 141.888C895.688 142.065 896.22 142.331 896.752 142.686C898.88 144.282 901.097 146.055 903.402 148.006C905.707 149.779 907.392 151.907 908.456 154.39C909.697 156.695 909.609 159.355 908.19 162.37C908.899 162.902 909.875 163.168 911.116 163.168C912.357 163.168 913.599 163.168 914.84 163.168C915.549 163.168 916.17 163.168 916.702 163.168C917.411 163.168 918.032 163.168 918.564 163.168C919.983 162.636 920.426 162.104 919.894 161.572C919.539 160.863 920.071 160.153 921.49 159.444C926.101 160.331 931.155 161.129 936.652 161.838C942.149 162.37 947.115 163.434 951.548 165.03C955.095 166.271 958.021 168.133 960.326 170.616C962.809 172.921 963.873 176.113 963.518 180.192ZM884.25 180.192C882.477 180.369 879.728 180.547 876.004 180.724C872.457 180.724 868.911 180.901 865.364 181.256C861.817 181.611 858.98 182.32 856.852 183.384C856.852 183.916 856.852 184.98 856.852 186.576C856.675 188.172 856.586 189.768 856.586 191.364C856.763 192.96 857.473 193.935 858.714 194.29C860.487 194.113 862.97 194.024 866.162 194.024C869.354 193.847 872.635 193.669 876.004 193.492C879.373 193.137 882.122 192.605 884.25 191.896V180.192ZM1234.57 265.312C1227.3 269.391 1219.68 270.721 1211.7 269.302C1203.72 267.706 1196.36 264.425 1189.62 259.46C1182.88 254.317 1177.56 248.643 1173.66 242.436C1170.82 244.919 1168.87 248.199 1167.81 252.278C1166.92 256.179 1166.3 260.435 1165.94 265.046C1165.77 269.657 1165.32 274.179 1164.61 278.612C1163.9 282.868 1162.31 286.769 1159.83 290.316C1155.92 287.656 1151.14 286.149 1145.46 285.794C1139.79 285.439 1133.23 286.06 1125.78 287.656C1125.07 290.316 1125.07 292.621 1125.78 294.572C1126.49 296.523 1127.29 298.296 1128.17 299.892C1129.06 301.488 1129.5 302.641 1129.5 303.35C1132.34 303.882 1135.8 304.503 1139.88 305.212C1143.95 305.744 1148.12 305.921 1152.38 305.744C1156.63 305.567 1160.36 304.769 1163.55 303.35C1165.15 301.931 1165.86 300.69 1165.68 299.626C1165.5 298.385 1166.03 297.143 1167.27 295.902C1171.71 296.257 1176.76 296.789 1182.44 297.498C1188.11 298.207 1193.16 299.626 1197.6 301.754C1202.03 303.705 1204.51 306.985 1205.05 311.596C1203.27 314.788 1200.08 317.271 1195.47 319.044C1190.86 320.995 1185.54 322.236 1179.51 322.768C1173.48 323.477 1167.45 323.743 1161.42 323.566C1155.39 323.566 1149.98 323.211 1145.2 322.502C1144.31 322.325 1143.51 322.147 1142.8 321.97C1142.09 321.793 1141.38 321.527 1140.67 321.172C1139.26 320.64 1137.75 320.197 1136.15 319.842C1134.56 319.487 1132.61 319.753 1130.3 320.64C1126.22 318.867 1122.23 316.384 1118.33 313.192C1114.43 310 1111.5 306.276 1109.55 302.02C1107.6 297.587 1107.42 292.799 1109.02 287.656C1107.96 287.656 1106.89 287.656 1105.83 287.656C1104.94 287.656 1104.05 287.656 1103.17 287.656C1099.44 287.656 1096.34 287.922 1093.86 288.454C1091.38 288.809 1088.8 290.316 1086.14 292.976C1081.71 291.735 1078.16 289.695 1075.5 286.858C1073.02 283.843 1070.72 280.651 1068.59 277.282C1070.01 274.622 1070.98 271.341 1071.51 267.44C1072.05 263.539 1072.22 259.637 1072.05 255.736C1072.05 251.835 1071.78 248.554 1071.25 245.894C1066.11 251.923 1060.61 257.598 1054.76 262.918C1048.9 268.238 1042.43 273.026 1035.34 277.282C1034.81 277.637 1034.63 278.789 1034.81 280.74C1034.98 281.627 1035.07 282.513 1035.07 283.4C1035.07 284.287 1034.81 285.085 1034.27 285.794C1034.1 285.971 1033.92 286.149 1033.74 286.326C1033.74 286.326 1033.65 286.415 1033.48 286.592C1033.3 286.06 1033.3 286.237 1033.48 287.124C1033.48 287.833 1033.48 288.277 1033.48 288.454C1033.48 289.341 1032.59 291.469 1030.82 294.838C1029.22 298.207 1027.27 301.931 1024.96 306.01C1022.66 309.911 1020.44 313.458 1018.31 316.65C1016.19 319.842 1014.5 321.793 1013.26 322.502C1010.95 323.921 1008.29 324.63 1005.28 324.63C1002.27 324.807 999.073 324.719 995.704 324.364C995.881 322.413 997.034 320.108 999.162 317.448C1001.47 314.965 1003.68 313.015 1005.81 311.596C1010.95 299.005 1016.1 286.06 1021.24 272.76C1026.38 259.46 1029.84 245.007 1031.61 229.402C1031.61 228.87 1031.61 228.338 1031.61 227.806C1031.79 227.097 1031.97 226.387 1032.15 225.678C1032.5 221.245 1032.94 215.925 1033.48 209.718C1034.19 203.511 1034.45 197.393 1034.27 191.364C1034.1 185.335 1033.21 180.458 1031.61 176.734C1031.79 174.961 1031.7 173.453 1031.35 172.212C1031.17 170.971 1030.9 169.729 1030.55 168.488C1028.07 166.005 1025.76 163.345 1023.63 160.508C1021.51 157.493 1019.2 154.656 1016.72 151.996C1017.43 151.109 1017.69 150.311 1017.52 149.602C1017.34 148.893 1017.07 148.183 1016.72 147.474C1016.54 146.765 1016.45 146.233 1016.45 145.878C1016.45 145.346 1017.16 144.903 1018.58 144.548C1016.45 142.952 1015.12 141.356 1014.59 139.76C1014.06 137.987 1013.88 135.593 1014.06 132.578C1023.1 133.465 1032.59 133.642 1042.52 133.11C1052.45 132.578 1062.47 131.869 1072.58 130.982C1078.08 130.627 1083.48 130.273 1088.8 129.918C1094.12 129.386 1099.36 129.031 1104.5 128.854C1106.27 122.825 1105.83 118.48 1103.17 115.82C1100.51 113.16 1097.4 110.766 1093.86 108.638C1091.38 107.219 1088.98 105.712 1086.68 104.116C1084.55 102.52 1083.13 100.303 1082.42 97.466C1083.31 98.1753 1084.55 98.3527 1086.14 97.998C1087.74 97.466 1089.42 96.934 1091.2 96.402C1092.62 95.87 1093.95 95.4267 1095.19 95.072C1096.61 94.7173 1097.85 94.6287 1098.91 94.806C1104.59 94.4513 1108.67 94.7173 1111.15 95.604C1113.81 96.4907 1116.82 97.998 1120.19 100.126C1120.9 102.254 1121.61 103.85 1122.32 104.914C1123.21 105.978 1124.36 107.485 1125.78 109.436C1124.89 112.273 1123.92 115.199 1122.85 118.214C1121.97 121.051 1121.08 123.977 1120.19 126.992C1122.85 126.815 1125.6 126.815 1128.44 126.992C1131.45 126.992 1134.56 126.992 1137.75 126.992C1145.37 127.347 1152.82 127.347 1160.09 126.992C1167.36 126.637 1172.86 124.775 1176.58 121.406C1178.18 122.115 1179.95 122.736 1181.9 123.268C1183.85 123.8 1185.89 124.332 1188.02 124.864C1191.39 125.573 1194.67 126.549 1197.86 127.79C1201.06 128.854 1203.54 130.45 1205.31 132.578C1207.09 134.706 1207.62 137.721 1206.91 141.622C1201.23 141.622 1195.56 141.622 1189.88 141.622C1184.39 141.622 1178.89 141.622 1173.39 141.622C1162.22 141.622 1151.31 141.711 1140.67 141.888C1130.21 141.888 1120.28 142.42 1110.88 143.484C1114.43 144.371 1117.53 146.144 1120.19 148.804C1123.03 151.287 1124.63 154.213 1124.98 157.582C1125.33 160.951 1123.74 164.321 1120.19 167.69C1121.61 167.69 1123.03 167.69 1124.45 167.69C1125.87 167.69 1127.29 167.779 1128.7 167.956C1132.96 167.956 1137.13 167.956 1141.21 167.956C1145.46 167.956 1149.54 167.513 1153.44 166.626C1154.51 166.449 1155.39 166.183 1156.1 165.828C1156.99 165.473 1157.79 165.119 1158.5 164.764C1159.56 164.232 1160.62 163.789 1161.69 163.434C1162.93 163.079 1164.17 162.902 1165.41 162.902C1172.15 163.257 1178.36 165.296 1184.03 169.02C1189.71 172.567 1193.96 176.734 1196.8 181.522C1192.72 182.941 1188.29 183.65 1183.5 183.65C1178.89 183.65 1174.1 183.561 1169.14 183.384C1165.59 183.207 1161.95 183.029 1158.23 182.852C1154.51 182.675 1150.78 182.852 1147.06 183.384C1150.25 187.64 1153.8 191.807 1157.7 195.886C1161.6 199.787 1166.03 202.359 1171 203.6C1171 204.309 1171.18 204.93 1171.53 205.462C1171.71 205.994 1171.53 206.615 1171 207.324C1174.19 207.679 1176.76 208.654 1178.71 210.25C1180.66 211.846 1182.61 213.531 1184.56 215.304C1186.51 216.9 1189.09 217.875 1192.28 218.23C1193.52 221.245 1195.38 223.55 1197.86 225.146C1200.52 226.742 1203.36 228.072 1206.38 229.136C1209.39 230.2 1212.05 231.53 1214.36 233.126C1218.26 235.786 1221.45 238.978 1223.93 242.702C1226.41 246.426 1229.34 249.707 1232.71 252.544C1233.06 254.849 1233.33 256.445 1233.51 257.332C1233.86 258.219 1234.13 259.105 1234.31 259.992C1234.48 260.879 1234.57 262.652 1234.57 265.312ZM1093.33 186.842C1087.83 189.325 1082.69 190.211 1077.9 189.502C1073.11 188.615 1068.68 186.931 1064.6 184.448C1060.52 181.788 1056.8 179.039 1053.43 176.202C1053.25 176.202 1053.07 176.113 1052.89 175.936C1052.89 184.803 1052.45 194.201 1051.56 204.132C1050.68 213.885 1049.52 223.55 1048.11 233.126C1046.69 242.525 1045.18 251.125 1043.58 258.928C1049.44 254.672 1054.05 250.061 1057.42 245.096C1060.96 239.953 1064.33 233.835 1067.52 226.742C1067.52 225.146 1066.9 224.082 1065.66 223.55C1064.6 222.841 1063.98 221.688 1063.8 220.092C1069.65 219.915 1074.62 218.141 1078.7 214.772C1082.95 211.403 1086.32 207.235 1088.8 202.27C1091.29 197.127 1092.79 191.985 1093.33 186.842ZM1104.5 161.04C1102.02 159.444 1099.8 157.405 1097.85 154.922C1095.9 152.439 1095.01 149.602 1095.19 146.41C1085.43 147.297 1076.39 148.095 1068.06 148.804C1059.72 149.336 1052.18 151.907 1045.45 156.518C1047.22 159.533 1048.73 162.281 1049.97 164.764C1051.39 167.247 1052.36 169.729 1052.89 172.212C1060.16 172.212 1068.23 171.946 1077.1 171.414C1085.97 170.705 1094.48 170.084 1102.64 169.552C1102.64 167.779 1102.81 166.271 1103.17 165.03C1103.7 163.611 1104.14 162.281 1104.5 161.04ZM1147.06 227.54C1143.69 225.767 1140.23 224.969 1136.68 225.146C1133.31 225.146 1130.57 226.387 1128.44 228.87C1126.49 231.353 1125.87 235.254 1126.58 240.574C1128.7 243.234 1131.36 245.362 1134.56 246.958C1137.93 248.377 1140.23 250.859 1141.47 254.406C1138.28 254.051 1135.44 254.14 1132.96 254.672C1130.65 255.204 1128.53 256.002 1126.58 257.066C1126.22 259.903 1125.78 262.652 1125.25 265.312C1124.89 267.972 1124.71 270.809 1124.71 273.824C1126.31 274.001 1127.82 274.001 1129.24 273.824C1130.65 273.647 1132.07 273.469 1133.49 273.292C1135.09 273.115 1136.6 272.937 1138.01 272.76C1139.61 272.583 1141.38 272.583 1143.33 272.76C1145.11 269.036 1146.35 264.425 1147.06 258.928C1147.77 253.431 1148.12 247.845 1148.12 242.17C1148.12 236.318 1147.77 231.441 1147.06 227.54ZM1150.52 209.186C1149.81 205.639 1148.48 202.713 1146.53 200.408C1144.75 197.925 1142.89 195.531 1140.94 193.226C1138.99 190.921 1137.3 188.261 1135.89 185.246C1134.11 184.891 1132.34 184.714 1130.57 184.714C1128.97 184.714 1127.29 184.803 1125.51 184.98C1123.92 185.157 1122.32 185.335 1120.72 185.512C1119.13 185.512 1117.44 185.423 1115.67 185.246C1115.14 186.665 1114.43 187.906 1113.54 188.97C1112.66 190.034 1112.12 191.541 1111.95 193.492C1112.48 193.847 1113.36 194.29 1114.61 194.822C1118.15 196.773 1121.34 199.078 1124.18 201.738C1127.2 204.221 1128.62 208.211 1128.44 213.708C1132.52 213.353 1135.62 213.087 1137.75 212.91C1139.88 212.555 1141.83 212.112 1143.6 211.58C1145.55 210.871 1147.86 210.073 1150.52 209.186ZM1111.95 244.298C1112.3 242.525 1112.3 240.929 1111.95 239.51C1111.59 238.091 1111.24 236.673 1110.88 235.254C1110.53 234.19 1110.17 233.215 1109.82 232.328C1109.64 231.264 1109.73 230.289 1110.08 229.402C1107.42 228.515 1104.94 228.249 1102.64 228.604C1100.33 228.959 1097.85 229.491 1095.19 230.2C1093.95 230.555 1092.62 230.909 1091.2 231.264C1089.96 231.619 1088.54 231.885 1086.94 232.062C1087.47 232.949 1087.74 233.924 1087.74 234.988C1087.74 236.052 1087.65 237.205 1087.47 238.446C1087.3 239.51 1087.21 240.751 1087.21 242.17C1087.21 243.589 1087.47 245.185 1088.01 246.958C1091.91 246.781 1096.25 246.337 1101.04 245.628C1106.01 244.919 1109.64 244.475 1111.95 244.298ZM1110.08 276.484C1109.91 274.888 1109.82 273.381 1109.82 271.962C1110 270.366 1110.08 268.859 1110.08 267.44C1110.26 265.312 1110.35 263.361 1110.35 261.588C1110.35 259.815 1109.91 258.307 1109.02 257.066C1106.36 257.775 1103.08 258.396 1099.18 258.928C1095.28 259.46 1091.82 259.194 1088.8 258.13C1088.45 263.805 1088.45 269.568 1088.8 275.42C1090.75 276.129 1092.88 276.484 1095.19 276.484C1097.67 276.484 1099.98 276.395 1102.1 276.218C1103.88 276.041 1105.47 275.952 1106.89 275.952C1108.31 275.952 1109.37 276.129 1110.08 276.484ZM1109.02 214.772C1109.55 209.097 1107.78 205.373 1103.7 203.6C1103.7 205.728 1103.08 207.324 1101.84 208.388C1100.77 209.275 1099.62 210.161 1098.38 211.048C1097.14 211.935 1096.43 213.442 1096.25 215.57C1097.49 216.102 1098.73 216.368 1099.98 216.368C1101.22 216.191 1102.55 215.925 1103.97 215.57C1104.85 215.393 1105.65 215.215 1106.36 215.038C1107.25 214.861 1108.13 214.772 1109.02 214.772Z" fill="#9D5B8B"/>
</svg>
